# xmcd CD database file
#
# Track frame offsets:
#	150
#	16557
#	31707
#	58965
#	72310
#	84244
#	99012
#	112292
#	126082
#	137975
#	150450
#	164956
#	176738
#	191735
#	204284
#	217871
#	231738
#	245004
#	258797
#	270582
#	284114
#	299362
#	313752
#	327510
#
# Disc length: 4557 seconds
#
# Revision: 0
# Processed by: cddbd v1.5.2PL0 Copyright (c) Steve Scherf et al.
# Submitted via: CDex 1.51
#
DISCID=6e11cb18
DTITLE=Louis Armstrong - Disc II. 1931-1947
DYEAR=2007
DGENRE=Jazz
TTITLE0=Stardust
TTITLE1=Georgia on My Mind
TTITLE2=On the Sunny Side of the Street (Part 1/Part 2)
TTITLE3=You Are My Lucky Start
TTITLE4=La Cucaracha
TTITLE5=On a Cocoanut Island
TTITLE6=Swing That Music
TTITLE7=Carry Me Back to Old Virginny
TTITLE8=Alexander's Ragtime Band
TTITLE9=When the Saints Go Marching In
TTITLE10=Nobody Knows de Trouble I've Seen
TTITLE11=Bye and Bye
TTITLE12=Wolverine Blues
TTITLE13=W.P.A.
TTITLE14=Cain and Abel
TTITLE15=Down in Honky Tonk Town
TTITLE16=Coal Cart Blues
TTITLE17=I'll Get Mine Bye and Bye
TTITLE18=Coquette
TTITLE19=You Won't Be Satisfied (Until You Break My Heart)
TTITLE20=Black O'Town Blues
TTITLE21=Where the Blues Were Born in New Orleans
TTITLE22=Someday
TTITLE23=When It's Sleepy Time Down South
EXTD=YEAR: 2007
EXTT0=
EXTT1=
EXTT2=
EXTT3=
EXTT4=
EXTT5=
EXTT6=
EXTT7=
EXTT8=
EXTT9=
EXTT10=
EXTT11=
EXTT12=
EXTT13=
EXTT14=
EXTT15=
EXTT16=
EXTT17=
EXTT18=
EXTT19=
EXTT20=
EXTT21=
EXTT22=
EXTT23=
PLAYORDER=
